<svg xmlns="http://www.w3.org/2000/svg" viewBox="0 0 64 64" fill="none">
  <defs>
    <linearGradient id="bg" x1="8" y1="8" x2="56" y2="56" gradientUnits="userSpaceOnUse">
      <stop offset="0%" stop-color="#8B6AE8"/>
      <stop offset="100%" stop-color="#6C4DCA"/>
    </linearGradient>
  </defs>
  <rect width="64" height="64" rx="14" fill="url(#bg)"/>
  <path d="M37 16.5c3 0 5.2 2.2 5.2 5.2v16c0 4-3.2 7.2-7.2 7.2-2.3 0-4.3-1.1-5.3-2.9l2.9-1.7c.6 1.1 1.6 1.7 2.7 1.7 1.8 0 3.1-1.3 3.1-3.1V21.7c0-1.6-1.4-3-3-3s-3 1.4-3 3h-3.5c0-4.7 3.8-8.2 8.3-8.2z" fill="#fff"/>
  <ellipse cx="33.2" cy="38.8" rx="4" ry="3.5" fill="url(#bg)"/>
  <circle cx="37.5" cy="13" r="3.2" fill="#F0A050"/>
</svg>
